<?xml version="1.0" standalone="no"?>
<!DOCTYPE svg PUBLIC "-//W3C//DTD SVG 20010904//EN"
 "http://www.w3.org/TR/2001/REC-SVG-20010904/DTD/svg10.dtd">
<svg version="1.0" xmlns="http://www.w3.org/2000/svg"
 width="95.000000pt" height="89.000000pt" viewBox="0 0 95.000000 89.000000"
 preserveAspectRatio="xMidYMid meet">

<g transform="translate(0.000000,89.000000) scale(0.100000,-0.100000)"
fill="#5394ee" stroke="none">
<path d="M10 873 c0 -5 9 -21 20 -38 15 -22 20 -25 20 -12 0 23 -18 57 -30 57
-6 0 -10 -3 -10 -7z"/>
<path d="M90 734 c0 -13 53 -94 61 -94 14 0 11 10 -18 56 -25 39 -43 55 -43
38z"/>
<path d="M206 562 c-7 -11 56 -91 72 -92 8 0 0 19 -20 46 -36 51 -44 58 -52
46z"/>
<path d="M340 398 c0 -20 83 -93 88 -78 2 6 2 12 0 13 -2 1 -22 20 -46 42 -29
27 -42 34 -42 23z"/>
<path d="M496 261 c-7 -11 92 -76 101 -67 7 7 10 4 -49 44 -26 18 -49 28 -52
23z"/>
<path d="M675 150 c-3 -4 17 -17 44 -29 53 -22 71 -26 71 -13 0 11 -109 51
-115 42z"/>
<path d="M895 133 c18 -45 18 -52 -4 -46 -25 6 -28 -5 -5 -22 14 -10 13 -13
-15 -24 -29 -12 -42 -31 -22 -31 15 0 102 52 99 59 -34 66 -43 81 -51 81 -5 0
-6 -8 -2 -17z"/>
</g>
</svg>
